<?xml version="1.0" encoding="utf-8"?>
<!-- Generator: Adobe Illustrator 24.3.0, SVG Export Plug-In . SVG Version: 6.00 Build 0)  -->
<svg version="1.1" id="Layer_1" xmlns="http://www.w3.org/2000/svg" xmlns:xlink="http://www.w3.org/1999/xlink" x="0px" y="0px"
	 viewBox="0 0 141.24 66.91" style="enable-background:new 0 0 141.24 66.91;" xml:space="preserve">
<style type="text/css">
	.st0{fill:#FF3300;}
</style>
<g>
	<polygon class="st0" points="19.48,29.87 15.84,29.06 18.31,17.43 6.15,14.88 3.64,26.52 0,25.74 5.48,0 9.12,0.78 6.93,11.21 
		19.09,13.79 21.32,3.39 25,4.14 	"/>
	<path class="st0" d="M41.65,15.24l-1.24-8.52L35.81,14L41.65,15.24z M42.21,19.06l-8.45-1.77l-5.09,8.02l-3.96-0.85L39.99,0.81
		l3.22,0.71l4.35,27.79l-3.99-0.85L42.21,19.06z"/>
	<polygon class="st0" points="56.92,0.03 60.31,0.78 68.76,22.06 72.76,3.39 76.4,4.17 70.92,29.87 67.56,29.17 59.08,7.81 
		55.08,26.52 51.44,25.74 	"/>
	<path class="st0" d="M88.17,24.82l2.9-0.32l2.16-1.45l1.2-1.56l1.7-2.86l0.74-3.29l-0.39-3.25l-0.57-2.08l-1.27-2.05l-2.51-1.52
		l-5.83-1.2l-3.92,18.38L88.17,24.82z M93.51,2.9l3.75,2.23l2.19,3.36l0.71,2.9l0.46,4.07l-0.95,4.59l-2.05,3.57l-1.87,2.3
		l-3.36,2.19l-4.39,0.57l-10.08-2.19l5.48-25.7L93.51,2.9z"/>
	<polygon class="st0" points="112.04,12.62 121.55,4.84 126.25,5.83 113.1,16.58 110.37,29.31 106.73,28.57 109.45,15.77 
		101.82,0.64 106.52,1.59 	"/>
	<polygon class="st0" points="35.81,66.91 32.17,66.1 34.65,54.46 22.48,51.92 19.97,63.55 16.33,62.77 21.81,37.03 25.45,37.81 
		23.26,48.24 35.42,50.82 37.65,40.43 41.33,41.17 	"/>
	<path class="st0" d="M57.98,52.27l-1.24-8.52l-4.6,7.28L57.98,52.27z M58.54,56.09l-8.45-1.77L45,62.35l-3.96-0.85l15.27-23.65
		l3.22,0.71l4.35,27.79l-3.99-0.85L58.54,56.09z"/>
	<polygon class="st0" points="73.25,37.07 76.64,37.81 85.09,59.1 89.09,40.43 92.73,41.21 87.25,66.91 83.89,66.2 75.41,44.85 
		71.41,63.55 67.77,62.77 	"/>
	<path class="st0" d="M104.5,61.85l2.9-0.32l2.16-1.45l1.2-1.56l1.7-2.86l0.74-3.29l-0.39-3.25l-0.57-2.08l-1.27-2.05l-2.51-1.52
		l-5.83-1.2l-3.92,18.38L104.5,61.85z M109.84,39.93l3.75,2.23l2.19,3.36l0.71,2.9l0.46,4.07l-0.95,4.59l-2.05,3.57l-1.87,2.3
		l-3.36,2.19l-4.38,0.57l-10.08-2.19l5.48-25.7L109.84,39.93z"/>
	<polygon class="st0" points="136.22,44.11 134.06,42.8 131.73,42.34 128.86,42.66 127.09,43.75 126.92,44.53 127.41,46.3 
		128.01,47.11 129.67,48.42 134.02,51.67 136.57,53.69 137.77,55.52 138.62,58.78 137.81,62.49 134.31,65.11 129.6,65.57 
		124.97,64.58 120.87,62.1 119.07,58.14 122.57,56.87 124.12,59.77 126.35,61.08 129.82,61.78 132.72,61.46 134.41,60.37 
		134.77,58.85 134.31,57.04 133.74,56.2 132.01,54.82 127.73,51.71 125.15,49.69 123.7,47.46 123.1,44.81 123.7,41.7 127.55,38.94 
		131.9,38.45 135.47,39.23 139.25,41.45 141.24,45.13 137.74,46.69 	"/>
</g>
</svg>
